<svg width="24" height="24" viewBox="0 0 24 24" fill="none" xmlns="http://www.w3.org/2000/svg">
<path d="M9.44999 17.55C9.34999 17.55 9.25832 17.5333 9.17499 17.5C9.09165 17.4667 9.00832 17.4083 8.92499 17.325L4.39999 12.8C4.24999 12.65 4.17499 12.4667 4.17499 12.25C4.17499 12.0333 4.24999 11.85 4.39999 11.7C4.54999 11.55 4.72499 11.475 4.92499 11.475C5.12499 11.475 5.29999 11.55 5.44999 11.7L9.44999 15.7L18.525 6.62499C18.675 6.47499 18.8542 6.39999 19.0625 6.39999C19.2708 6.39999 19.45 6.47499 19.6 6.62499C19.75 6.77499 19.825 6.95416 19.825 7.16249C19.825 7.37083 19.75 7.54999 19.6 7.69999L9.97499 17.325C9.89165 17.4083 9.80832 17.4667 9.72499 17.5C9.64165 17.5333 9.54999 17.55 9.44999 17.55Z" fill="white"/>
</svg>
